<svg xmlns="http://www.w3.org/2000/svg" version="1.1" xmlns:xlink="http://www.w3.org/1999/xlink" xmlns:svgjs="http://svgjs.com/svgjs" width="706" height="705"><svg width="706" height="705" viewBox="0 0 706 705" fill="none" xmlns="http://www.w3.org/2000/svg">
<path fill-rule="evenodd" clip-rule="evenodd" d="M494.376 549.679C498.749 554.053 498.149 561.32 492.949 564.668C453.71 589.928 406.998 604.583 356.863 604.582C217.825 604.582 105.112 491.87 105.112 352.832C105.112 213.794 217.825 101.082 356.863 101.082C406.997 101.082 453.709 115.737 492.948 140.997C498.149 144.345 498.749 151.612 494.375 155.985L447.593 202.767C444.366 205.994 439.379 206.598 435.346 204.461C411.927 192.047 385.216 185.016 356.863 185.015C264.18 185.015 189.046 260.15 189.046 352.832C189.046 445.515 264.18 520.649 356.863 520.649C385.216 520.649 411.927 513.618 435.347 501.203C439.379 499.066 444.367 499.67 447.594 502.897L494.376 549.679ZM553.713 490.34C558.087 494.714 565.354 494.114 568.701 488.913C593.959 449.675 608.613 402.965 608.613 352.832C608.613 302.7 593.959 255.989 568.701 216.751C565.353 211.551 558.086 210.95 553.713 215.324L506.93 262.106C503.704 265.333 503.099 270.321 505.236 274.353C517.649 297.772 524.679 324.481 524.679 352.832C524.679 381.183 517.649 407.893 505.236 431.311C503.099 435.344 503.704 440.331 506.931 443.558L553.713 490.34Z" fill="#017BFF"></path>
<path fill-rule="evenodd" clip-rule="evenodd" d="M553.698 490.321C558.074 494.697 565.347 494.093 568.691 488.886C594.606 448.544 608.534 401.513 608.625 353.303C608.717 304.775 594.785 257.387 568.693 216.768C565.349 211.562 558.076 210.957 553.7 215.333L506.915 262.118C503.691 265.342 503.085 270.326 505.217 274.357C517.995 298.514 524.744 325.552 524.692 353.144C524.64 380.522 517.894 407.331 505.215 431.298C503.083 435.329 503.689 440.312 506.914 443.537L553.698 490.321Z" fill="#FFC000"></path>
<circle cx="83.9168" cy="83.9168" r="83.9168" transform="matrix(1 5.05762e-07 5.05762e-07 1 272.951 268.914)" fill="#FFC000"></circle>
</svg><style>@media (prefers-color-scheme: light) { :root { filter: none; } }
</style></svg>